<?xml version="1.0" encoding="utf-8"?>
<!-- Generator: Adobe Illustrator 21.1.0, SVG Export Plug-In . SVG Version: 6.00 Build 0)  -->
<svg version="1.1" id="Layer_1" xmlns="http://www.w3.org/2000/svg" xmlns:xlink="http://www.w3.org/1999/xlink" x="0px" y="0px"
	 viewBox="0 0 100 100" style="enable-background:new 0 0 100 100;" xml:space="preserve">
<style type="text/css">
	.st0{fill:#231F20;}
	.st1{fill:#009B95;}
	.st2{fill:#0553C9;}
	.st3{fill:#FDBE31;}
</style>
<g>
	<circle class="st0" cx="50.8" cy="57.9" r="6"/>
	<g>
		<circle class="st0" cx="18.4" cy="60.2" r="6"/>
		<circle class="st0" cx="18.3" cy="72.4" r="4.9"/>
		<rect x="13.4" y="72.4" class="st0" width="9.8" height="14.3"/>
		<path class="st0" d="M10.9,71.2c0-1.1-0.9-2-2-2c-1.1,0-2,0.9-2,2c0,0,0,0,0,0h0v15.4h4V71.2L10.9,71.2
			C10.9,71.2,10.9,71.2,10.9,71.2z"/>
		<path class="st0" d="M33.8,82h-5.7c-0.7,0-1.4-0.3-1.8-0.8l-7.9-8.7c-0.9-1-0.8-2.6,0.2-3.5c1-0.9,2.4-0.8,3.3,0.2l7.3,7.9h4.6
			c1.4,0,2.5,1.1,2.5,2.5C36.3,80.9,35.2,82,33.8,82z"/>
	</g>
	<g>
		<circle class="st0" cx="83.6" cy="60.2" r="6"/>
		<circle class="st0" cx="83.6" cy="72.4" r="4.9"/>
		<rect x="78.8" y="72.4" class="st0" width="9.8" height="14.3"/>
		<path class="st0" d="M91,71.2c0-1.1,0.9-2,2-2c1.1,0,2,0.9,2,2c0,0,0,0,0,0h0v15.4h-4V71.2L91,71.2C91,71.2,91,71.2,91,71.2z"/>
		<path class="st0" d="M73.8,82h-5.7c-1.4,0-2.5-1.1-2.5-2.5c0-1.4,1.1-2.5,2.5-2.5h4.6l7.5-8.1c0.9-1,2.1-1,3.1,0
			c1,0.9,1.1,2.5,0.2,3.5l-7.9,8.7C75.1,81.7,74.5,82,73.8,82z"/>
	</g>
	<path class="st0" d="M60.9,80.9C60.9,80.9,60.9,80.9,60.9,80.9c-1.4,0-2.5-1.1-2.5-2.5c0-0.1,0-0.1,0-0.2c0-4.7-3.4-8.5-7.7-8.5
		s-7.7,3.8-7.7,8.5c0,1.4-1.1,2.5-2.5,2.5c-1.4,0-2.5-1.1-2.5-2.5c0-7.4,5.6-13.4,12.6-13.4c6.9,0,12.6,6,12.6,13.4
		c0,0.1,0,0.2,0,0.3C63.3,79.8,62.2,80.9,60.9,80.9z"/>
	<rect x="45.1" y="68.1" class="st0" width="11.3" height="13.5"/>
	<path class="st0" d="M74.1,85.8v-1.1c0-0.9-0.7-1.6-1.6-1.6H28c-0.9,0-1.6,0.7-1.6,1.6v1.1c0,0,0,0,0,0.7h47.7
		C74.1,85.8,74.1,85.8,74.1,85.8z"/>
</g>
<g>
	<g>
		<g>
			<g>
				<ellipse class="st1" cx="79.8" cy="39" rx="18.2" ry="11.2"/>
			</g>
			<g>
				<polygon class="st1" points="76.8,45.9 75.9,53.8 69.9,48.5 				"/>
			</g>
		</g>
	</g>
	<g>
		<g>
			<g>
				<ellipse class="st2" cx="22.1" cy="39" rx="18.2" ry="11.2"/>
			</g>
			<g>
				<polygon class="st2" points="25.1,45.9 26.1,53.8 32,48.5 				"/>
			</g>
		</g>
	</g>
	<g>
		<ellipse class="st3" cx="50.1" cy="27.8" rx="19.1" ry="11.8"/>
		<polygon class="st3" points="46.3,38.6 50.8,44.6 54.8,38.4 		"/>
	</g>
</g>
</svg>
