<?xml version="1.0" encoding="utf-8"?>
<!-- Generator: Adobe Illustrator 21.1.0, SVG Export Plug-In . SVG Version: 6.00 Build 0)  -->
<svg version="1.1" id="Layer_1" xmlns="http://www.w3.org/2000/svg" xmlns:xlink="http://www.w3.org/1999/xlink" x="0px" y="0px"
	 viewBox="0 0 100 100" style="enable-background:new 0 0 100 100;" xml:space="preserve">
<style type="text/css">
	.st0{fill:#E6E7E8;}
	.st1{fill:#0553C9;}
	.st2{fill:#DCE5EB;}
	.st3{fill:#CCCECF;}
	.st4{fill:#8BBFE7;stroke:#3B4063;stroke-width:1.9294;stroke-linecap:round;stroke-linejoin:round;stroke-miterlimit:10;}
	.st5{fill:#A6C9DA;}
	.st6{fill:none;stroke:#3B4063;stroke-width:1.9294;stroke-linecap:round;stroke-linejoin:round;stroke-miterlimit:10;}
	.st7{fill:#43486F;stroke:#3B4063;stroke-width:1.9294;stroke-linecap:round;stroke-linejoin:round;stroke-miterlimit:10;}
	.st8{fill:#ACBBC4;}
	.st9{fill:#43486F;}
	.st10{fill:#FFFFFF;}
	.st11{fill:#FFFFFF;stroke:#3F4469;stroke-width:1.9496;stroke-linecap:round;stroke-linejoin:round;stroke-miterlimit:10;}
	.st12{fill:#CADAE2;}
	.st13{fill:#3B4063;}
</style>
<polygon class="st0" points="57.2,74.9 7,74.9 7,11.2 50.6,11.2 57.2,18 "/>
<path class="st1" d="M57.2,75.2H7c-0.2,0-0.4-0.2-0.4-0.4V11.2c0-0.2,0.2-0.4,0.4-0.4h43.6c0.1,0,0.2,0,0.3,0.1l6.6,6.8
	c0.1,0.1,0.1,0.2,0.1,0.3v56.9C57.5,75.1,57.4,75.2,57.2,75.2z M7.4,74.5h49.4V18.1l-6.4-6.6h-43V74.5z"/>
<path class="st2" d="M54.7,15.5c0,1,0.2,42.2,0.2,45.8c0,1.7,0.1,8.2-0.4,9.5c-0.3,0.8-0.8,1.3-1.7,1.4c-1.3,0.2-31.9,0.2-45.8,0.2
	v2.5h50.1V18L54.7,15.5z"/>
<polygon class="st3" points="50.5,11.2 50.5,18 57.2,18 "/>
<path class="st1" d="M57.2,18.4C57.2,18.4,57.2,18.4,57.2,18.4l-6.6,0c-0.2,0-0.4-0.2-0.4-0.4l0-6.8c0-0.1,0.1-0.3,0.2-0.3
	c0.1-0.1,0.3,0,0.4,0.1l6.6,6.8c0.1,0.1,0.1,0.3,0.1,0.4C57.4,18.3,57.3,18.4,57.2,18.4z M50.9,17.6l5.4,0l-5.4-5.5L50.9,17.6z"/>
<g>
	<g>
		<g>
			<rect x="11.8" y="29.3" class="st4" width="40.1" height="2.6"/>
			<rect x="11.8" y="30.8" class="st5" width="40.1" height="1.2"/>
		</g>
		<g>
			<rect x="11.8" y="33.8" class="st4" width="40.1" height="2.6"/>
			<rect x="11.8" y="35.3" class="st5" width="40.1" height="1.1"/>
		</g>
	</g>
	<g>
		<rect x="11.6" y="40.3" class="st6" width="40.4" height="29.5"/>
		<line class="st6" x1="26.5" y1="42.1" x2="26.5" y2="69.9"/>
		<rect x="11.6" y="40.2" class="st7" width="40.5" height="3.5"/>
		<rect x="11.6" y="41.9" class="st8" width="40.5" height="1.8"/>
		<line class="st6" x1="11.7" y1="51.9" x2="52" y2="51.9"/>
		<line class="st6" x1="11.7" y1="60.2" x2="52" y2="60.2"/>
	</g>
</g>
<g>
	<g>
		<rect x="30" y="20.1" class="st4" width="19.8" height="4.4"/>
		<rect x="30" y="22.4" class="st5" width="19.8" height="2.2"/>
	</g>
	<g>
		<rect x="13.9" y="25.5" class="st9" width="13.1" height="0.7"/>
		<rect x="13.9" y="18.5" class="st9" width="13.1" height="0.7"/>
		<g>
			<g>
				<path class="st9" d="M21.4,22.8L21.4,22.8l-1.2-3c-0.1-0.2-0.2-0.3-0.4-0.3h-0.3c-0.2,0-0.3,0.1-0.4,0.3l-1.2,3c0,0,0,0,0,0
					L17,24.6c-0.1,0.2,0,0.5,0.2,0.6c0.1,0,0.1,0,0.2,0c0.2,0,0.3-0.1,0.4-0.3l0.6-1.5h2.2l0.6,1.5c0.1,0.2,0.4,0.3,0.6,0.2
					c0.2-0.1,0.3-0.4,0.2-0.6L21.4,22.8z M18.8,22.5l0.7-1.7l0.7,1.7H18.8z"/>
				<path class="st9" d="M26.6,19.6c-0.2-0.1-0.5-0.1-0.6,0.1l-1.4,1.9l-1.3-1.9c-0.1-0.2-0.4-0.3-0.6-0.1c-0.2,0.1-0.3,0.4-0.1,0.6
					l1.5,2.2l-1.6,2.1c-0.1,0.2-0.1,0.5,0.1,0.6c0.1,0.1,0.2,0.1,0.3,0.1c0.1,0,0.3-0.1,0.4-0.2l1.4-1.9l1.3,1.9
					c0.1,0.1,0.2,0.2,0.4,0.2c0.1,0,0.2,0,0.3-0.1c0.2-0.1,0.3-0.4,0.1-0.6l-1.4-2.1l1.6-2.2C26.8,20,26.8,19.8,26.6,19.6z"/>
				<path class="st9" d="M17.5,20.5c0.2,0,0.5-0.2,0.5-0.5c0-0.3-0.2-0.5-0.5-0.5h-3.2c-0.3,0-0.5,0.2-0.5,0.5
					c0,0.3,0.2,0.5,0.5,0.5h1.1v4.2c0,0.3,0.2,0.5,0.5,0.5c0.3,0,0.5-0.2,0.5-0.5v-4.2H17.5z"/>
			</g>
		</g>
	</g>
</g>
<g>
	<polygon class="st0" points="83.8,91.1 34.6,81.5 46.7,19.1 89.5,27.4 94.6,35.3 	"/>
	<path class="st1" d="M83.8,91.5C83.8,91.5,83.7,91.5,83.8,91.5l-49.3-9.6c-0.1,0-0.2-0.1-0.2-0.2c-0.1-0.1-0.1-0.2-0.1-0.3L46.3,19
		c0-0.2,0.2-0.3,0.4-0.3L89.5,27c0.1,0,0.2,0.1,0.2,0.2l5.2,7.9c0.1,0.1,0.1,0.2,0.1,0.3L84.2,91.2c0,0.1-0.1,0.2-0.2,0.2
		C83.9,91.4,83.9,91.5,83.8,91.5z M35,81.2l48.5,9.4l10.7-55.3l-5-7.6L47,19.5L35,81.2z"/>
</g>
<path class="st2" d="M92.7,32.4c-0.2,1-7.8,41.4-8.6,45c-0.3,1.7-1.4,8-2.2,9.2c-0.5,0.7-1.1,1.1-1.9,1.1c-1.3-0.1-31.4-5.9-45-8.6
	l-0.5,2.4l49.2,9.6l10.8-55.8L92.7,32.4z"/>
<g>
	<g>
		<path class="st9" d="M59.1,32.8C59.1,32.8,59.1,32.8,59.1,32.8l-0.6-3.1c0-0.2-0.2-0.3-0.4-0.4l-0.3-0.1c-0.2,0-0.4,0-0.5,0.2
			l-1.8,2.7c0,0,0,0,0,0l-1.1,1.6c-0.1,0.2-0.1,0.5,0.1,0.6c0.1,0,0.1,0.1,0.2,0.1c0.2,0,0.4,0,0.5-0.2l0.9-1.4l2.1,0.4l0.3,1.6
			c0,0.2,0.3,0.4,0.5,0.4c0.2,0,0.4-0.3,0.4-0.5L59.1,32.8z M56.7,32.1l1-1.6l0.4,1.8L56.7,32.1z"/>
		<path class="st9" d="M64.9,30.7c-0.2-0.2-0.5-0.2-0.6,0l-1.7,1.6l-0.9-2.1C61.5,30,61.2,29.9,61,30c-0.2,0.1-0.3,0.4-0.2,0.6
			l1,2.4l-1.9,1.8c-0.2,0.2-0.2,0.5,0,0.6c0.1,0.1,0.2,0.1,0.2,0.1c0.1,0,0.3,0,0.4-0.1l1.7-1.6l0.9,2.1c0.1,0.1,0.2,0.2,0.3,0.3
			c0.1,0,0.2,0,0.3,0c0.2-0.1,0.3-0.4,0.2-0.6l-1-2.4l2-1.8C65.1,31.2,65.1,30.9,64.9,30.7z"/>
		<path class="st9" d="M55.7,29.8c0.2,0,0.5-0.1,0.5-0.4c0-0.2-0.1-0.5-0.4-0.5l-3.1-0.6c-0.2,0-0.5,0.1-0.5,0.4
			c0,0.2,0.1,0.5,0.4,0.5l1.1,0.2l-0.8,4.1c0,0.2,0.1,0.5,0.4,0.5c0.2,0,0.5-0.1,0.5-0.4l0.8-4.1L55.7,29.8z"/>
	</g>
</g>
<g>
	<rect x="67.4" y="20.7" transform="matrix(0.1908 -0.9816 0.9816 0.1908 17.539 97.2164)" class="st9" width="0.7" height="34.4"/>
	
		<rect x="68.9" y="13.2" transform="matrix(0.1908 -0.9816 0.9816 0.1908 26.1805 92.5243)" class="st9" width="0.7" height="34.4"/>
</g>
<polygon class="st3" points="89.4,27.3 88.1,34 94.6,35.3 "/>
<path class="st1" d="M94.6,35.6C94.6,35.6,94.6,35.6,94.6,35.6l-6.6-1.3c-0.2,0-0.3-0.2-0.3-0.4l1.3-6.6c0-0.1,0.1-0.3,0.3-0.3
	c0.1,0,0.3,0,0.4,0.2l5.2,7.9c0.1,0.1,0.1,0.3,0,0.4C94.9,35.6,94.8,35.6,94.6,35.6z M88.5,33.7l5.3,1l-4.3-6.5L88.5,33.7z"/>
<rect x="60" y="54.8" transform="matrix(0.1908 -0.9816 0.9816 0.1908 -24.4016 120.8957)" class="st4" width="2.2" height="40.9"/>
<rect x="59.2" y="59.2" transform="matrix(0.1908 -0.9816 0.9816 0.1908 -29.4446 123.6343)" class="st4" width="2.2" height="40.9"/>
<rect x="49.9" y="36.8" transform="matrix(0.1908 -0.9816 0.9816 0.1908 -3.6876 109.6487)" class="st6" width="29.5" height="40.4"/>
<line class="st6" x1="61.9" y1="43.3" x2="56.5" y2="70.6"/>
<rect x="65.4" y="23.9" transform="matrix(0.1908 -0.9816 0.9816 0.1908 11.0272 101.6587)" class="st7" width="3.5" height="40.5"/>
<g>
	<line class="st6" x1="46.2" y1="46.8" x2="85.7" y2="54.5"/>
	<line class="st6" x1="45.2" y1="51.9" x2="84.7" y2="59.6"/>
	<line class="st6" x1="44.2" y1="57.1" x2="83.7" y2="64.8"/>
	<line class="st6" x1="43.1" y1="62.3" x2="82.7" y2="70"/>
</g>
<circle class="st10" cx="49.2" cy="76.7" r="16.8"/>
<circle class="st1" cx="49.2" cy="76.6" r="18.6"/>
<circle class="st11" cx="49.2" cy="76.6" r="15.6"/>
<path class="st12" d="M49.2,61c-8.6,0-15.6,7-15.6,15.6c0,8.6,7,15.6,15.6,15.6c8.6,0,15.6-7,15.6-15.6C64.8,68,57.8,61,49.2,61z
	 M49.2,90.3c-7.6,0-13.7-6.2-13.7-13.7c0-7.6,6.2-13.7,13.7-13.7S62.9,69,62.9,76.6C62.9,84.2,56.8,90.3,49.2,90.3z"/>
<g>
	<g>
		<g>
			<g>
				<g>
					<path class="st9" d="M49.2,66.2c-0.2,0-0.4-0.2-0.4-0.4v-3c0-0.2,0.2-0.4,0.4-0.4c0.2,0,0.4,0.2,0.4,0.4v3
						C49.6,66,49.4,66.2,49.2,66.2z"/>
				</g>
			</g>
			<g>
				<g>
					<path class="st9" d="M49.2,90.7c-0.2,0-0.4-0.2-0.4-0.4v-3c0-0.2,0.2-0.4,0.4-0.4c0.2,0,0.4,0.2,0.4,0.4v3
						C49.6,90.5,49.4,90.7,49.2,90.7z"/>
				</g>
			</g>
		</g>
		<g>
			<g>
				<g>
					<path class="st9" d="M38.4,76.9h-3c-0.2,0-0.4-0.2-0.4-0.4c0-0.2,0.2-0.4,0.4-0.4h3c0.2,0,0.4,0.2,0.4,0.4
						C38.8,76.8,38.6,76.9,38.4,76.9z"/>
				</g>
			</g>
			<g>
				<g>
					<path class="st9" d="M62.9,76.9h-3c-0.2,0-0.4-0.2-0.4-0.4c0-0.2,0.2-0.4,0.4-0.4h3c0.2,0,0.4,0.2,0.4,0.4
						C63.3,76.8,63.1,76.9,62.9,76.9z"/>
				</g>
			</g>
		</g>
	</g>
</g>
<g>
	<rect x="49" y="76.3" class="st13" width="10.2" height="0.2"/>
	<path class="st13" d="M50.4,76.4c0-0.7-0.6-1.3-1.3-1.3c-0.1,0-0.2,0-0.3,0l-4-6.3L44,69.3l4,6.4c-0.1,0.2-0.2,0.4-0.2,0.7
		c0,0.6,0.5,1.2,1.1,1.3v9.1h0.6v-9.1C50,77.5,50.4,77,50.4,76.4z"/>
</g>
</svg>
