<?xml version="1.0" encoding="utf-8"?>
<!-- Generator: Adobe Illustrator 21.1.0, SVG Export Plug-In . SVG Version: 6.00 Build 0)  -->
<svg version="1.1" id="Layer_1" xmlns="http://www.w3.org/2000/svg" xmlns:xlink="http://www.w3.org/1999/xlink" x="0px" y="0px"
	 viewBox="0 0 100 100" style="enable-background:new 0 0 100 100;" xml:space="preserve">
<style type="text/css">
	.st0{fill:#D62121;}
	.st1{fill:#E6E6E6;}
	.st2{fill:none;}
	.st3{fill:#333189;}
	.st4{fill:#FFFFFF;}
</style>
<g>
	<g>
		<path class="st0" d="M22.6,78.4c-1.1,0-2.2,0-3.3,0.1c2.4,2.7,5.1,5.1,8.1,7.2c6.9,0.5,14.5,1.9,22.2,4.6c2,0.7,4,1.5,5.9,2.4
			c3.6-0.4,7.1-1.2,10.4-2.5c-4.7-3-9.5-5.2-14.3-7C41.3,79.5,31.1,78.4,22.6,78.4z"/>
		<path class="st0" d="M27.2,61c-6.9,0-12.7,0.7-16.6,1.4c0.6,2.2,1.4,4.4,2.4,6.5c3.4-0.4,7.4-0.7,11.9-0.7c8.6,0,19,1.1,29.5,4.9
			c7.1,2.6,14.4,6.3,21.2,11.8c1.8-1.3,3.4-2.7,4.9-4.3c-7.7-7.1-16.1-11.8-24.5-14.8C45.8,62.1,35.7,61,27.2,61z"/>
		<path class="st1" d="M30.5,87.6c6,3.4,13,5.3,20.4,5.3c0.3,0,0.6,0,0.9,0c-1-0.4-1.9-0.7-2.9-1.1C42.6,89.5,36.4,88.2,30.5,87.6z"
			/>
		<path class="st1" d="M25,69.8c-4.2,0-8,0.3-11.2,0.6c1.2,2.3,2.6,4.4,4.2,6.4c1.5-0.1,3-0.1,4.6-0.1c8.6,0,19,1.1,29.5,4.9
			c5.2,1.9,10.5,4.4,15.6,7.8c2.3-1,4.5-2.2,6.5-3.6c-6.5-5.2-13.4-8.8-20.3-11.2C43.6,70.9,33.5,69.8,25,69.8z"/>
		<path class="st1" d="M57.2,56.8c-10.3-3.7-20.5-4.8-29-4.8c-8.6,0-15.5,1.1-19.1,1.9c0.2,2.4,0.5,4.7,1,6.9c4-0.7,9.9-1.4,17-1.4
			c8.6,0,19,1.1,29.5,4.9c8.5,3,17.1,7.8,25,15.1c1.2-1.4,2.4-2.8,3.5-4.3C76.6,65.9,66.8,60.3,57.2,56.8z"/>
		<path class="st0" d="M59.8,48.2c-10.3-3.7-20.5-4.8-29-4.8c-11.1,0-19.4,1.9-21.5,2.4c-0.2,1.7-0.3,3.5-0.3,5.2c0,0.4,0,0.8,0,1.2
			c3.8-0.8,10.7-1.9,19.2-1.9c8.6,0,19,1.1,29.5,4.9c9.7,3.5,19.6,9.2,28.4,18.4c1.2-1.8,2.2-3.7,3.1-5.7
			C80.2,58,69.9,51.8,59.8,48.2z"/>
		<g>
			<path class="st2" d="M86,62.2c-0.5-0.5-1-1-1.5-1.4l0.6,1.3L86,62.2z"/>
			<path class="st3" d="M90.9,48.9l0.4-2.5l-1.8-1.8l2.6-0.4l0.1-0.3c-0.4-2.4-1-4.7-1.8-6.9l-0.7,0.6l0.4,2.5L87.9,39l-2.3,1.2
				l0.4-2.5l-1.8-1.8l2.6-0.4l1.1-2.3l1.1,2.3l0.8,0.1c-1-2.6-2.3-5.1-3.8-7.4l-1.3,1.2l0.4,2.5L83,30.8l-2.3,1.2l0.4-2.5l-1.8-1.8
				l2.6-0.4L83,25l1.1,2.3l1.5,0.2C80.9,20.5,74,14.9,65.9,11.8l-0.8,0.8l0.4,2.5l-2.3-1.2l-2.3,1.2l0.4-2.5l-1.8-1.8l2.3-0.3
				c-2.5-0.7-5.2-1.1-7.9-1.3l0.6,1.3l2.6,0.4l-1.8,1.8l0.4,2.5l-2.3-1.2l-2.3,1.2l0.4-2.5l-1.8-1.8l2.6-0.4l0.7-1.3
				c-0.7,0-1.3,0-2,0c-2.3,0-4.6,0.2-6.8,0.5l0.4,0.8l2.6,0.4l-1.8,1.8l0.4,2.5l-2.3-1.2l-2.3,1.2l0.4-2.5l-1.8-1.8l2.6-0.4l0.3-0.6
				c-2.1,0.4-4.1,1-6.1,1.7l-1,1l0.4,2.5l-2.3-1.2l-2.3,1.2l0.2-1.4c-6.2,3.2-11.5,8-15.3,13.7l1.3,0.2l-1.8,1.8l0.4,2.5l-2-1
				c-2.1,4-3.7,8.3-4.4,12.9c2.9-0.7,10.8-2.3,21.2-2.3c8.6,0,19,1.1,29.5,4.9c0.4,0.2,0.9,0.3,1.3,0.5l0.1-0.6l-1.8-1.8l2.6-0.4
				l1.1-2.3l1.1,2.3l2.6,0.4l-1.8,1.8l0.4,2.3c3.1,1.4,6.2,3,9.2,5l2.3-0.3l1.1-2.3l1.1,2.3l2.6,0.4l-1.8,1.8l0.4,2.1
				c1,0.8,2,1.6,3,2.5l0.2-0.4l0.5,1c0.5,0.5,1,0.9,1.5,1.4l1.6,0.2l-0.7,0.7c1,1,2,2,3,3.1c1.9-4.7,2.9-9.9,2.9-15.3
				c0-1,0-1.9-0.1-2.9L90.9,48.9z M76.8,19.2l0.4-0.8c1,0.8,2,1.7,3,2.6l-0.4,0.4l0.4,2.5l-2.3-1.2l-2.3,1.2l0.4-2.5l-1.8-1.8
				L76.8,19.2z M73.2,25l1.1,2.3l2.6,0.4L75,29.5l0.4,2.5l-2.3-1.2l-2.3,1.2l0.4-2.5l-1.8-1.8l2.6-0.4L73.2,25z M67,19.2l1.1-2.3
				l1.1,2.3l2.6,0.4L70,21.3l0.4,2.5l-2.3-1.2l-2.3,1.2l0.4-2.5l-1.8-1.8L67,19.2z M57.2,19.2l1.1-2.3l1.1,2.3l2.6,0.4l-1.8,1.8
				l0.4,2.5l-2.3-1.2L56,23.9l0.4-2.5l-1.8-1.8L57.2,19.2z M47.3,19.2l1.1-2.3l1.1,2.3l2.6,0.4l-1.8,1.8l0.4,2.5l-2.3-1.2l-2.3,1.2
				l0.4-2.5l-1.8-1.8L47.3,19.2z M37.3,19.2l1.1-2.3l1.1,2.3l2.6,0.4l-1.8,1.8l0.4,2.5l-2.3-1.2l-2.3,1.2l0.4-2.5l-1.8-1.8
				L37.3,19.2z M27.5,19.2l1.1-2.3l1.1,2.3l2.6,0.4l-1.8,1.8l0.4,2.5l-2.3-1.2l-2.3,1.2l0.4-2.5L25,19.5L27.5,19.2z M21,40.2
				L18.7,39l-2.3,1.2l0.4-2.5L15,35.9l2.6-0.4l1.1-2.3l1.1,2.3l2.6,0.4l-1.8,1.8L21,40.2z M21.3,32.1l0.4-2.5l-1.8-1.8l2.6-0.4
				l1.1-2.3l1.1,2.3l2.6,0.4l-1.8,1.8l0.4,2.5l-2.3-1.2L21.3,32.1z M30.3,37.7l0.4,2.5L28.5,39l-2.3,1.2l0.4-2.5l-1.8-1.8l2.6-0.4
				l1.1-2.3l1.1,2.3l2.6,0.4L30.3,37.7z M31.3,32.1l0.4-2.5l-1.8-1.8l2.6-0.4l1.1-2.3l1.1,2.3l2.6,0.4l-1.8,1.8l0.4,2.5l-2.3-1.2
				L31.3,32.1z M40.8,40.2L38.5,39l-2.3,1.2l0.4-2.5l-1.8-1.8l2.6-0.4l1.1-2.3l1.1,2.3l2.6,0.4l-1.8,1.8L40.8,40.2z M41.1,32.1
				l0.4-2.5l-1.8-1.8l2.6-0.4l1.1-2.3l1.1,2.3l2.6,0.4l-1.8,1.8l0.4,2.5l-2.3-1.2L41.1,32.1z M50.6,40.2L48.3,39L46,40.2l0.4-2.5
				l-1.8-1.8l2.6-0.4l1.1-2.3l1.1,2.3l2.6,0.4l-1.8,1.8L50.6,40.2z M51.1,32.1l0.4-2.5l-1.8-1.8l2.6-0.4l1.1-2.3l1.1,2.3l2.6,0.4
				l-1.8,1.8l0.4,2.5l-2.3-1.2L51.1,32.1z M60.6,40.2L58.3,39L56,40.2l0.4-2.5l-1.8-1.8l2.6-0.4l1.1-2.3l1.1,2.3l2.6,0.4l-1.8,1.8
				L60.6,40.2z M63.2,30.8l-2.3,1.2l0.4-2.5l-1.8-1.8l2.6-0.4l1.1-2.3l1.1,2.3l2.6,0.4l-1.8,1.8l0.4,2.5L63.2,30.8z M65.8,40.2
				l0.4-2.5l-1.8-1.8l2.6-0.4l1.1-2.3l1.1,2.3l2.6,0.4L70,37.7l0.4,2.5L68.1,39L65.8,40.2z M75.7,48.9l-2.3-1.2l-2.3,1.2l0.4-2.5
				l-1.8-1.8l2.6-0.4l1.1-2.3l1.1,2.3l2.6,0.4l-1.8,1.8L75.7,48.9z M78.1,39l-2.3,1.2l0.4-2.5l-1.8-1.8l2.6-0.4l1.1-2.3l1.1,2.3
				l2.6,0.4L80,37.7l0.4,2.5L78.1,39z M83.4,47.7l-2.3,1.2l0.4-2.5l-1.8-1.8l2.6-0.4l1.1-2.3l1.1,2.3l2.6,0.4l-1.8,1.8l0.4,2.5
				L83.4,47.7z M88.5,56.8L86.2,58l0.4-2.5l-1.8-1.8l2.6-0.4l1.1-2.3l1.1,2.3l2.6,0.4l-1.8,1.8l0.4,2.5L88.5,56.8z"/>
			<polygon class="st4" points="19.8,35.5 18.7,33.2 17.5,35.5 15,35.9 16.8,37.7 16.4,40.2 18.7,39 21,40.2 20.5,37.7 22.4,35.9 
							"/>
			<polygon class="st4" points="28.5,33.2 27.4,35.5 24.8,35.9 26.6,37.7 26.2,40.2 28.5,39 30.8,40.2 30.3,37.7 32.2,35.9 
				29.6,35.5 			"/>
			<polygon class="st4" points="39.6,35.5 38.5,33.2 37.3,35.5 34.8,35.9 36.6,37.7 36.2,40.2 38.5,39 40.8,40.2 40.3,37.7 
				42.2,35.9 			"/>
			<polygon class="st4" points="49.4,35.5 48.3,33.2 47.2,35.5 44.6,35.9 46.5,37.7 46,40.2 48.3,39 50.6,40.2 50.2,37.7 52,35.9 
							"/>
			<polygon class="st4" points="59.4,35.5 58.3,33.2 57.2,35.5 54.6,35.9 56.5,37.7 56,40.2 58.3,39 60.6,40.2 60.1,37.7 62,35.9 
							"/>
			<polygon class="st4" points="70,37.7 71.8,35.9 69.3,35.5 68.1,33.2 67,35.5 64.4,35.9 66.3,37.7 65.8,40.2 68.1,39 70.4,40.2 
							"/>
			<polygon class="st4" points="80,37.7 81.8,35.9 79.2,35.5 78.1,33.2 77,35.5 74.4,35.9 76.3,37.7 75.8,40.2 78.1,39 80.4,40.2 
							"/>
			<path class="st4" d="M90.5,37c-0.2-0.4-0.3-0.9-0.5-1.3l-0.1,0C90.1,36.1,90.3,36.6,90.5,37L90.5,37z"/>
			<path class="st4" d="M87.9,33.2l-1.1,2.3l-2.6,0.4l1.8,1.8l-0.4,2.5l2.3-1.2l2.3,1.2l-0.4-2.5l0.7-0.6c-0.2-0.5-0.3-0.9-0.5-1.4
				l-0.8-0.1L87.9,33.2z"/>
			<path class="st4" d="M67.3,44.6l-2.6-0.4l-1.1-2.3l-1.1,2.3l-2.6,0.4l1.8,1.8L61.6,47c1.4,0.5,2.8,1.1,4.2,1.7l-0.4-2.3
				L67.3,44.6z"/>
			<polygon class="st4" points="74.5,44.2 73.4,41.9 72.2,44.2 69.7,44.6 71.5,46.4 71.1,48.9 73.4,47.7 75.7,48.9 75.2,46.4 
				77.1,44.6 			"/>
			<polygon class="st4" points="85.2,46.4 87.1,44.6 84.5,44.2 83.4,41.9 82.2,44.2 79.7,44.6 81.5,46.4 81.1,48.9 83.4,47.7 
				85.7,48.9 			"/>
			<path class="st4" d="M92.9,47.9c-0.1-1.4-0.3-2.9-0.6-4.2l-0.1,0.3c0.2,1.3,0.4,2.7,0.5,4.1L92.9,47.9z"/>
			<path class="st4" d="M89.5,44.6l1.8,1.8l-0.4,2.5l1.8-0.9c-0.1-1.4-0.3-2.7-0.5-4.1L92,44.2L89.5,44.6z"/>
			<path class="st4" d="M82.2,53.7l-2.6-0.4L78.5,51l-1.1,2.3L75,53.7c1.9,1.2,3.8,2.5,5.7,4l-0.4-2.1L82.2,53.7z"/>
			<polygon class="st4" points="92.2,53.7 89.6,53.3 88.5,51 87.3,53.3 84.8,53.7 86.6,55.5 86.2,58 88.5,56.8 90.7,58 90.3,55.5 
							"/>
			<path class="st4" d="M86,62.2c0.3,0.3,0.6,0.6,1,0.9l0.7-0.7L86,62.2z"/>
			<path class="st4" d="M83.9,59.7l-0.2,0.4c0.2,0.2,0.5,0.4,0.7,0.6L83.9,59.7z"/>
			<path class="st4" d="M15.6,29.5l1.8-1.8l-1.3-0.2c-0.8,1.1-1.5,2.3-2.1,3.5l2,1L15.6,29.5z"/>
			<polygon class="st4" points="25.4,29.5 27.3,27.7 24.7,27.3 23.6,25 22.4,27.3 19.9,27.7 21.7,29.5 21.3,32.1 23.6,30.8 
				25.9,32.1 			"/>
			<polygon class="st4" points="35.4,29.5 37.3,27.7 34.7,27.3 33.6,25 32.4,27.3 29.9,27.7 31.7,29.5 31.3,32.1 33.6,30.8 
				35.9,32.1 			"/>
			<polygon class="st4" points="45.2,29.5 47.1,27.7 44.5,27.3 43.4,25 42.3,27.3 39.7,27.7 41.5,29.5 41.1,32.1 43.4,30.8 
				45.7,32.1 			"/>
			<polygon class="st4" points="55.2,29.5 57.1,27.7 54.5,27.3 53.4,25 52.2,27.3 49.7,27.7 51.5,29.5 51.1,32.1 53.4,30.8 
				55.7,32.1 			"/>
			<polygon class="st4" points="65.1,29.5 66.9,27.7 64.3,27.3 63.2,25 62.1,27.3 59.5,27.7 61.4,29.5 60.9,32.1 63.2,30.8 
				65.5,32.1 			"/>
			<polygon class="st4" points="71.4,29.5 70.9,32.1 73.2,30.8 75.5,32.1 75,29.5 76.9,27.7 74.3,27.3 73.2,25 72.1,27.3 69.5,27.7 
							"/>
			<path class="st4" d="M86.2,28.2c-0.1-0.2-0.3-0.5-0.5-0.7l0,0C85.8,27.8,86,28,86.2,28.2L86.2,28.2z"/>
			<path class="st4" d="M83,25l-1.1,2.3l-2.6,0.4l1.8,1.8l-0.4,2.5l2.3-1.2l2.3,1.2l-0.4-2.5l1.3-1.2c-0.2-0.2-0.3-0.5-0.5-0.7
				l-1.5-0.2L83,25z"/>
			<polygon class="st4" points="26.4,23.9 28.7,22.7 31,23.9 30.5,21.3 32.4,19.5 29.8,19.2 28.7,16.8 27.5,19.2 25,19.5 26.8,21.3 
							"/>
			<polygon class="st4" points="36.2,23.9 38.5,22.7 40.8,23.9 40.3,21.3 42.2,19.5 39.6,19.2 38.5,16.8 37.3,19.2 34.8,19.5 
				36.6,21.3 			"/>
			<polygon class="st4" points="46.2,23.9 48.5,22.7 50.8,23.9 50.3,21.3 52.2,19.5 49.6,19.2 48.5,16.8 47.3,19.2 44.8,19.5 
				46.6,21.3 			"/>
			<polygon class="st4" points="56,23.9 58.3,22.7 60.6,23.9 60.1,21.3 62,19.5 59.4,19.2 58.3,16.8 57.2,19.2 54.6,19.5 56.5,21.3 
							"/>
			<polygon class="st4" points="65.8,23.9 68.1,22.7 70.4,23.9 70,21.3 71.8,19.5 69.3,19.2 68.1,16.8 67,19.2 64.4,19.5 66.3,21.3 
							"/>
			<path class="st4" d="M75.6,23.9l2.3-1.2l2.3,1.2l-0.4-2.5l0.4-0.4c-0.9-0.9-1.9-1.8-3-2.6l-0.4,0.8l-2.6,0.4l1.8,1.8L75.6,23.9z"
				/>
			<path class="st4" d="M36.9,11.1c-1.8,0.6-3.6,1.4-5.3,2.2l-0.1,0.4c1.6-0.8,3.2-1.6,4.9-2.2L36.9,11.1z"/>
			<path class="st4" d="M33.6,13.9l2.3,1.2l-0.4-2.5l1-1c-1.7,0.6-3.3,1.4-4.9,2.2l-0.2,1.4L33.6,13.9z"/>
			<path class="st4" d="M44,9.4c-0.5,0.1-0.9,0.2-1.4,0.2l-0.1,0.2c0.5-0.1,1.1-0.2,1.6-0.3L44,9.4z"/>
			<path class="st4" d="M39.7,10.8l1.8,1.8l-0.4,2.5l2.3-1.2l2.3,1.2l-0.4-2.5l1.8-1.8l-2.6-0.4l-0.4-0.8c-0.5,0.1-1.1,0.2-1.6,0.3
				l-0.3,0.6L39.7,10.8z"/>
			<path class="st4" d="M53.9,9.1C53.6,9,53.3,9,53,9l0,0.1C53.2,9.1,53.6,9.1,53.9,9.1L53.9,9.1z"/>
			<path class="st4" d="M49.7,10.8l1.8,1.8l-0.4,2.5l2.3-1.2l2.3,1.2l-0.4-2.5l1.8-1.8l-2.6-0.4l-0.6-1.3c-0.3,0-0.7,0-1-0.1
				l-0.7,1.3L49.7,10.8z"/>
			<path class="st4" d="M65.9,11.8c-1.3-0.5-2.6-1-4-1.3l-0.1,0C63.2,10.8,64.5,11.3,65.9,11.8L65.9,11.8z"/>
			<path class="st4" d="M61.4,12.6l-0.4,2.5l2.3-1.2l2.3,1.2l-0.4-2.5l0.8-0.8c-1.3-0.5-2.7-1-4.1-1.3l-2.3,0.3L61.4,12.6z"/>
		</g>
	</g>
	<g>
		<path class="st2" d="M51,9c-11.6,0-22.1,4.7-29.7,12.3c-6.4,6.4-10.8,15-12,24.5c0.2-0.4,0.4-0.9,0.7-1.3c3.1-5.6,8-10.3,15-13.4
			c0.2-0.1,3-1.5,7.1-2.9c4.3-1.5,10-2.9,16-2.9c3.8,0,7.7,0.6,11.2,2.2c3.5,1.6,6.7,4.2,9.3,8.1c0.5,0.1,1.9,0.4,3.7,0.9
			c2.3,0.6,5.3,1.5,8.1,2.6c1.8,0.7,3.5,1.5,4.9,2.5c0.8,0.5,1.4,1.1,1.9,1.7c0.2,0.2,0.4,0.5,0.5,0.9c0.2,0.3,0.3,0.7,0.5,1.1
			C88.4,46,88.7,47,89,48c0.5,2.1,0.9,4.5,0.9,6.5c0,0.6,0,1.2-0.1,1.8l-0.2,1.4l-0.9-1.1l0,0l0,0c0,0,0,0-0.1-0.1
			c-0.1-0.1-0.2-0.2-0.3-0.3c-0.2-0.3-0.6-0.6-1-1.1c-0.8-0.9-1.9-2-3.1-2.9c-0.8-0.6-1.6-1.1-2.3-1.4c-0.4-0.2-0.8-0.3-1.2-0.3
			c-0.4,0-1-0.1-1.6-0.2c-0.7-0.1-1.4-0.1-2.3-0.1c-1.5,0-3.3,0.2-5.1,0.7c-1.8,0.5-3.7,1.4-5.5,2.9c-1.2,1-2.3,2.2-3.3,3.8
			c-1.3,2.1-2.4,4.9-3.2,8.4c-0.2,1.1-0.4,2.2-0.4,3.3c0,2.1,0.4,4.2,1.2,6.1c0.8,1.9,1.9,3.8,3.3,5.4c2.2,2.7,5,4.9,8.1,6.5
			c3.2-1.8,6.1-4.1,8.6-6.7C88.3,73.1,93,62.6,93,51c0-11.6-4.7-22.1-12.3-29.7C73.1,13.7,62.6,9,51,9z"/>
		<path d="M60.5,77.9c-1.4-2.6-2.3-5.5-2.3-8.6c0-1.2,0.1-2.4,0.4-3.6c0.9-4.1,2.3-7.2,3.9-9.6c1.7-2.4,3.6-4,5.6-5.1
			c0.9-0.5,1.8-0.9,2.7-1.2c-0.3,0-0.5,0.1-0.8,0.1c-1.5-0.4-4.5-1.3-7.3-2.3c-3.9-1.4-10.3,0.8-12,2.6c0,0,5.1-0.8,7.7-0.3
			c0.1,0,0.3,0.1,0.4,0.1c2.5,0.7-8.7,1.4-12.1,5.2c0,0,4.5-0.4,5.4,0.5c0.9,0.9-10.3,1.6-11.5,8c0,0-1-2.8,0-5.5
			c0,0-3.2,4.9-9.8,7.3c0,0,3.1-5.6,1-7.2c-2.1-1.6-8.4,3.6-8.6,9.8c0,0-2.4-6.3,0-9.8c0,0-4.5,4.8-4.9,10.5c0,0-4.3-3.7-2.4-8.6
			c0,0-1.6,4-3.5,7.5c2.1,4.8,5.1,9.2,8.8,12.9C28.9,88.3,39.4,93,51,93c7.1,0,13.9-1.8,19.8-4.9c-0.3-0.2-0.6-0.3-0.9-0.5
			C66,85.2,62.6,81.9,60.5,77.9z"/>
		<path d="M88.6,56.1l0.2,0c0,0-0.1-0.1-0.2-0.2C88.6,56,88.6,56,88.6,56.1z"/>
		<path d="M68.3,35.7l0.2,0.2l0.2-0.1c0-0.1-0.1-0.1-0.1-0.2c-0.2,0-0.2-0.1-0.3-0.1L68.3,35.7z"/>
		<path d="M88.1,55c0.1,0.2,0.2,0.3,0.3,0.4c0.1,0.2,0.2,0.3,0.2,0.4c0-0.1,0-0.2,0-0.3C88.5,55.4,88.3,55.1,88.1,55
			C88.1,54.9,88.1,54.9,88.1,55z"/>
		<path d="M88.6,55.8c0.1,0.2,0.2,0.3,0.2,0.3l0.4,0.1c0,0-0.2-0.3-0.6-0.7C88.6,55.6,88.6,55.7,88.6,55.8z"/>
		<path d="M89.2,56.2l0.5-0.4c0,0-0.1-0.2-0.4-0.5c0,0,0,0.1,0,0.1C89.2,55.7,89.2,56,89.2,56.2z"/>
		<path d="M25.2,31.7c0,0,0.7-0.4,2-0.9c0.6-0.3,1.3-0.5,2.1-0.9c1.8-0.7,4.2-1.6,6.9-2.3c0.6-0.2,1.3-0.3,2-0.5
			c0.1,0,0.3-0.1,0.4-0.1c0.3-0.1,0.5-0.1,0.8-0.2c0.3-0.1,0.6-0.1,0.8-0.2c0.6-0.1,1.1-0.2,1.7-0.3c0.4-0.1,0.9-0.1,1.3-0.2
			c0.3,0,0.6-0.1,0.9-0.1c0.1,0,0.3,0,0.4,0c0.3,0,0.6-0.1,0.9-0.1c0.1,0,0.3,0,0.4,0c0.3,0,0.6,0,0.9,0c0.7,0,1.5,0,2.2,0
			c0.3,0,0.6,0,0.9,0c0.1,0,0.3,0,0.4,0c0.3,0,0.6,0,0.9,0.1c0.6,0.1,1.2,0.1,1.8,0.2c0.3,0,0.6,0.1,0.9,0.2
			c0.3,0.1,0.6,0.1,0.9,0.2c0.3,0.1,0.6,0.1,0.9,0.2c0.4,0.1,0.9,0.2,1.3,0.4c0.1,0,0.3,0.1,0.4,0.1c0.3,0.1,0.6,0.2,0.9,0.3
			c0.1,0.1,0.3,0.1,0.4,0.2c0.3,0.1,0.6,0.2,0.8,0.4c0.1,0.1,0.3,0.1,0.4,0.2c0.3,0.1,0.5,0.3,0.8,0.4c2.8,1.6,5.3,3.8,7.4,6.9
			c0.1-0.1,0.2-0.2,0.2-0.2l0.1,0.1l0.1-0.2c0,0,0.1,0,0.3,0.1c-2.6-3.9-5.8-6.5-9.3-8.1c-3.6-1.6-7.4-2.2-11.2-2.2
			c-5.9,0-11.7,1.5-16,2.9c-4.1,1.4-6.9,2.8-7.1,2.9c0,0,0,0,0,0L25.2,31.7z"/>
		<path d="M25.2,31.7L25,31.1c0,0,0,0,0,0c0,0,0,0,0,0L25.2,31.7z"/>
		<path d="M64,80.8c-1.4-1.7-2.5-3.5-3.3-5.4c-0.8-1.9-1.2-4-1.2-6.1c0-1.1,0.1-2.2,0.4-3.3c0.8-3.5,1.9-6.3,3.2-8.4
			c1-1.6,2.1-2.8,3.3-3.8c1.7-1.5,3.6-2.4,5.5-2.9c1.8-0.5,3.6-0.7,5.1-0.7c0.8,0,1.6,0,2.3,0.1c0.7,0.1,1.2,0.1,1.6,0.2
			c0.3,0,0.7,0.1,1.2,0.3c0.7,0.3,1.5,0.8,2.3,1.4c1.2,0.9,2.3,2,3.1,2.9c0.4,0.4,0.7,0.8,1,1.1c0.1,0.1,0.2,0.2,0.3,0.3
			c0,0,0.1,0.1,0.1,0.1l0,0l0,0l0.9,1.1l0.2-1.4c0.1-0.5,0.1-1.1,0.1-1.8c0-2-0.4-4.4-0.9-6.5c-0.3-1-0.6-2-0.9-2.9
			c-0.2-0.4-0.3-0.8-0.5-1.1c-0.2-0.3-0.3-0.6-0.5-0.9c-0.5-0.6-1.1-1.2-1.9-1.7c-1.3-0.9-3-1.7-4.9-2.5c-2.7-1.1-5.7-2-8.1-2.6
			c-1.8-0.5-3.2-0.8-3.7-0.9c0,0.1,0.1,0.1,0.1,0.2l-0.2,0.1l0.1,0.1c0,0.1-0.1,0.1-0.1,0.2c2.2,0.5,15.2,3.5,18.1,7.4
			c0.5,0.7,1.1,2.1,1.6,3.8c0.2,0.6,0.3,1.2,0.5,1.8c0.1,0.3,0.1,0.6,0.2,0.9c0.1,0.3,0.1,0.6,0.2,0.9c0,0.2,0,0.3,0.1,0.5
			c0,0.3,0.1,0.6,0.1,0.9c0,0.3,0.1,0.6,0.1,0.9c0,0.3,0,0.6,0,0.9c0,0.1,0,0.3,0,0.4c0,0.2,0,0.5,0,0.7c0.3,0.3,0.4,0.5,0.4,0.5
			l-0.5,0.4l-0.4-0.1c0,0,0,0.1,0,0.1s0,0-0.1-0.1l-0.2,0c0-0.1,0-0.1,0-0.2c-0.1-0.1-0.2-0.3-0.4-0.4c-0.1-0.1-0.2-0.2-0.3-0.4
			c-0.1-0.1-0.2-0.3-0.4-0.4c-0.1-0.2-0.3-0.3-0.4-0.5c-0.2-0.2-0.3-0.3-0.5-0.5c-0.3-0.4-0.7-0.7-1.2-1.2c-0.4-0.4-0.9-0.8-1.4-1.2
			c-0.1-0.1-0.2-0.1-0.3-0.2c-1-0.7-2-1.2-2.9-1.2c-3.4-0.3-17.5-2.7-21.6,16c-2,9.2,4.4,17.6,12.2,21.9c0.2-0.1,0.4-0.2,0.6-0.4
			C69,85.8,66.2,83.5,64,80.8z"/>
		<path d="M9.4,47.2c0,0,0-0.1,0.1-0.1c0.1-0.2,0.1-0.3,0.2-0.5c0,0,0-0.1,0.1-0.1c0.1-0.2,0.2-0.3,0.2-0.5c0,0,0-0.1,0.1-0.1
			c0.1-0.2,0.2-0.3,0.2-0.5c0,0,0-0.1,0.1-0.1c0.1-0.1,0.2-0.3,0.2-0.4c0,0,0.1-0.1,0.1-0.1c0.1-0.1,0.2-0.3,0.2-0.4
			c0-0.1,0.1-0.1,0.1-0.2c0.1-0.1,0.2-0.3,0.3-0.4c0-0.1,0.1-0.1,0.1-0.2c0.1-0.1,0.2-0.3,0.3-0.4c0-0.1,0.1-0.1,0.1-0.2
			c0.1-0.1,0.2-0.3,0.3-0.4c0-0.1,0.1-0.1,0.1-0.2c0.1-0.1,0.2-0.3,0.3-0.4c0-0.1,0.1-0.1,0.1-0.2c0.1-0.1,0.2-0.3,0.3-0.4
			c0-0.1,0.1-0.1,0.1-0.2c0.1-0.1,0.2-0.2,0.3-0.4c0-0.1,0.1-0.1,0.1-0.2c0.1-0.1,0.2-0.2,0.3-0.3c0-0.1,0.1-0.1,0.1-0.2
			c0.1-0.1,0.2-0.2,0.3-0.3c0.1-0.1,0.1-0.1,0.2-0.2c0.1-0.1,0.2-0.2,0.3-0.3c0.1-0.1,0.1-0.1,0.2-0.2c0.1-0.1,0.2-0.2,0.3-0.3
			c0.1-0.1,0.1-0.1,0.2-0.2c0.1-0.1,0.2-0.2,0.3-0.3c0.1-0.1,0.1-0.1,0.2-0.2c0.1-0.1,0.2-0.2,0.3-0.3c0.1-0.1,0.1-0.1,0.2-0.2
			c0.1-0.1,0.2-0.2,0.3-0.3c0.1-0.1,0.1-0.1,0.2-0.2c0.1-0.1,0.2-0.2,0.3-0.3c0.1-0.1,0.1-0.1,0.2-0.2c0.1-0.1,0.2-0.2,0.3-0.3
			c0.1-0.1,0.1-0.1,0.2-0.2c0.1-0.1,0.2-0.2,0.3-0.3c0.1-0.1,0.1-0.1,0.2-0.2c0.1-0.1,0.2-0.2,0.3-0.3c0.1-0.1,0.2-0.1,0.2-0.2
			c0.1-0.1,0.2-0.2,0.3-0.2c0.1-0.1,0.2-0.1,0.3-0.2c0.1-0.1,0.2-0.2,0.3-0.2c0.1-0.1,0.2-0.1,0.3-0.2c0.1-0.1,0.2-0.2,0.3-0.2
			c0.1-0.1,0.2-0.1,0.3-0.2c0.1-0.1,0.2-0.2,0.4-0.2c0.1-0.1,0.2-0.1,0.3-0.2c0.1-0.1,0.3-0.2,0.4-0.2c0.1,0,0.2-0.1,0.2-0.1
			c0.1-0.1,0.3-0.2,0.4-0.2c0.1,0,0.2-0.1,0.3-0.1c0.1-0.1,0.3-0.1,0.4-0.2c0.1,0,0.2-0.1,0.3-0.1c0.1-0.1,0.3-0.2,0.4-0.2
			c0.1,0,0.2-0.1,0.2-0.1c0.2-0.1,0.4-0.2,0.6-0.3c0,0,0.1,0,0.1,0c0.2-0.1,0.5-0.2,0.7-0.3L25,31.1c0,0,0,0,0,0
			c-6.9,3.1-11.8,7.8-15,13.4c-0.2,0.4-0.5,0.8-0.7,1.3c-0.1,0.6-0.1,1.2-0.2,1.9c0,0,0,0,0,0C9.2,47.5,9.3,47.3,9.4,47.2z"/>
		<path d="M11.6,43.1c-0.1,0.1-0.2,0.3-0.3,0.4C11.4,43.4,11.5,43.3,11.6,43.1z"/>
		<path d="M22.2,33.2c-0.1,0.1-0.3,0.2-0.4,0.2C21.9,33.3,22.1,33.3,22.2,33.2z"/>
		<path d="M11.2,43.7c-0.1,0.1-0.2,0.3-0.3,0.4C11.1,44,11.1,43.8,11.2,43.7z"/>
		<path d="M10.9,44.2c-0.1,0.1-0.2,0.3-0.2,0.4C10.7,44.5,10.8,44.4,10.9,44.2z"/>
		<path d="M9.4,47.2c-0.1,0.2-0.1,0.3-0.2,0.5C9.2,47.5,9.3,47.3,9.4,47.2z"/>
		<path d="M12,42.6c-0.1,0.1-0.2,0.3-0.3,0.4C11.8,42.8,11.9,42.7,12,42.6z"/>
		<path d="M12.3,42c-0.1,0.1-0.2,0.3-0.3,0.4C12.2,42.3,12.2,42.1,12.3,42z"/>
		<path d="M24.4,32c-0.2,0.1-0.4,0.2-0.6,0.3C24,32.2,24.2,32.1,24.4,32z"/>
		<path d="M9.6,46.6c-0.1,0.2-0.2,0.3-0.2,0.5C9.5,46.9,9.6,46.7,9.6,46.6z"/>
		<path d="M22.9,32.8c-0.1,0.1-0.3,0.1-0.4,0.2C22.6,33,22.7,32.9,22.9,32.8z"/>
		<path d="M12.7,41.5c-0.1,0.1-0.2,0.2-0.3,0.4C12.5,41.7,12.6,41.6,12.7,41.5z"/>
		<path d="M9.9,46c-0.1,0.2-0.2,0.3-0.2,0.5C9.8,46.3,9.9,46.1,9.9,46z"/>
		<path d="M10.6,44.8c-0.1,0.1-0.2,0.3-0.2,0.4C10.4,45.1,10.5,45,10.6,44.8z"/>
		<path d="M23.6,32.5c-0.1,0.1-0.3,0.2-0.4,0.2C23.3,32.6,23.4,32.5,23.6,32.5z"/>
		<path d="M10.2,45.4c-0.1,0.2-0.2,0.3-0.2,0.5C10.1,45.7,10.2,45.5,10.2,45.4z"/>
		<path d="M21.6,33.6c-0.1,0.1-0.3,0.2-0.4,0.2C21.3,33.7,21.4,33.7,21.6,33.6z"/>
		<path d="M13.1,41c-0.1,0.1-0.2,0.2-0.3,0.4C13,41.2,13,41.1,13.1,41z"/>
		<path d="M17.4,36.5c-0.1,0.1-0.2,0.2-0.3,0.3C17.2,36.7,17.3,36.6,17.4,36.5z"/>
		<path d="M18.5,35.6c-0.1,0.1-0.2,0.2-0.3,0.3C18.3,35.8,18.4,35.7,18.5,35.6z"/>
		<path d="M19.7,34.8c-0.1,0.1-0.2,0.2-0.3,0.2C19.5,35,19.6,34.9,19.7,34.8z"/>
		<path d="M15.4,38.4c-0.1,0.1-0.2,0.2-0.3,0.3C15.2,38.6,15.3,38.5,15.4,38.4z"/>
		<path d="M19.1,35.2c-0.1,0.1-0.2,0.2-0.3,0.2C18.9,35.4,19,35.3,19.1,35.2z"/>
		<path d="M16.4,37.5c-0.1,0.1-0.2,0.2-0.3,0.3C16.2,37.6,16.3,37.6,16.4,37.5z"/>
		<path d="M16.9,37c-0.1,0.1-0.2,0.2-0.3,0.3C16.7,37.2,16.8,37.1,16.9,37z"/>
		<path d="M13.6,40.4c-0.1,0.1-0.2,0.2-0.3,0.3C13.4,40.7,13.5,40.5,13.6,40.4z"/>
		<path d="M14,39.9c-0.1,0.1-0.2,0.2-0.3,0.3C13.8,40.1,13.9,40,14,39.9z"/>
		<path d="M14.9,38.9c-0.1,0.1-0.2,0.2-0.3,0.3C14.7,39.1,14.8,39,14.9,38.9z"/>
		<path d="M20.9,34c-0.1,0.1-0.2,0.2-0.4,0.2C20.7,34.1,20.8,34.1,20.9,34z"/>
		<path d="M20.3,34.4c-0.1,0.1-0.2,0.2-0.3,0.2C20.1,34.5,20.2,34.5,20.3,34.4z"/>
		<path d="M18,36.1c-0.1,0.1-0.2,0.2-0.3,0.3C17.7,36.3,17.9,36.2,18,36.1z"/>
		<path d="M14.4,39.4c-0.1,0.1-0.2,0.2-0.3,0.3C14.2,39.6,14.3,39.5,14.4,39.4z"/>
		<path d="M40.2,26.6c0.6-0.1,1.1-0.2,1.7-0.3C41.3,26.4,40.7,26.5,40.2,26.6z"/>
		<path d="M44.5,26c0.3,0,0.6-0.1,0.9-0.1C45.1,26,44.8,26,44.5,26z"/>
		<path d="M50.3,25.9c0.3,0,0.6,0,0.9,0.1C50.9,26,50.6,25.9,50.3,25.9z"/>
		<path d="M88.6,55.5c0.4,0.4,0.6,0.7,0.6,0.7S89,55.9,88.6,55.5C88.6,55.5,88.6,55.5,88.6,55.5z"/>
		<path d="M53,26.2c0.3,0,0.6,0.1,0.9,0.2C53.5,26.3,53.3,26.3,53,26.2z"/>
		<path d="M45.8,25.9c0.3,0,0.6,0,0.9,0C46.4,25.9,46.1,25.9,45.8,25.9z"/>
		<path d="M48.9,25.9c0.3,0,0.6,0,0.9,0C49.5,25.9,49.2,25.9,48.9,25.9z"/>
		<path d="M88.8,50.1c0.1,0.3,0.1,0.6,0.2,0.9C88.9,50.7,88.9,50.4,88.8,50.1z"/>
		<path d="M89.1,51.5c0,0.3,0.1,0.6,0.1,0.9C89.1,52.1,89.1,51.8,89.1,51.5z"/>
		<path d="M89.3,53.3c0,0.3,0,0.6,0,0.9C89.3,53.9,89.3,53.6,89.3,53.3z"/>
		<path d="M59.9,28.4c0.3,0.1,0.5,0.3,0.8,0.4C60.4,28.7,60.1,28.6,59.9,28.4z"/>
		<path d="M88,54.9c0.2,0.2,0.4,0.5,0.6,0.7c0,0,0,0,0,0c-0.2-0.2-0.4-0.5-0.7-0.8C88,54.8,88,54.8,88,54.9z"/>
		<path d="M55.6,26.8c0.4,0.1,0.9,0.2,1.3,0.4C56.5,27,56,26.9,55.6,26.8z"/>
		<path d="M57.3,27.3c0.3,0.1,0.6,0.2,0.9,0.3C57.9,27.5,57.6,27.4,57.3,27.3z"/>
		<path d="M89.2,52.4c0,0.3,0.1,0.6,0.1,0.9C89.2,53,89.2,52.7,89.2,52.4z"/>
		<path d="M58.6,27.8c0.3,0.1,0.6,0.2,0.8,0.4C59.2,28.1,58.9,28,58.6,27.8z"/>
		<path d="M53.8,26.4c0.3,0.1,0.6,0.1,0.9,0.2C54.4,26.5,54.1,26.4,53.8,26.4z"/>
		<path d="M27.3,30.7c0.6-0.3,1.3-0.5,2.1-0.9C28.5,30.2,27.8,30.5,27.3,30.7z"/>
		<path d="M59.3,65.9c4.1-18.7,18.2-16.3,21.6-16c0.9,0.1,1.9,0.6,2.9,1.2c-0.2-0.1-0.3-0.3-0.5-0.4c-0.1-0.1-0.3-0.2-0.4-0.3
			c-0.1-0.1-0.2-0.1-0.3-0.2c-0.6-0.3-1.2-0.5-1.8-0.6c-1.3-0.1-5.3-0.4-10.1,0.2c-0.9,0.3-1.8,0.7-2.7,1.2c-2,1.1-3.9,2.7-5.6,5.1
			c-1.7,2.4-3,5.5-3.9,9.6c-0.3,1.2-0.4,2.4-0.4,3.6c0,3.1,0.8,6,2.3,8.6c2.1,4,5.5,7.3,9.3,9.7c0.3,0.2,0.6,0.4,0.9,0.5
			c0.2-0.1,0.4-0.2,0.7-0.4C63.6,83.5,57.3,75.1,59.3,65.9z"/>
		<path d="M29.3,29.8c1.8-0.7,4.2-1.6,6.9-2.3C33.5,28.3,31.2,29.1,29.3,29.8z"/>
		<path d="M15.6,38.2c0.1-0.1,0.2-0.2,0.3-0.3C15.8,38,15.7,38.1,15.6,38.2z"/>
		<path d="M25.2,31.7L25.2,31.7c0,0,0.7-0.4,2-0.9C26,31.3,25.2,31.7,25.2,31.7z"/>
		<path d="M43.2,26.2c0.3,0,0.6-0.1,0.9-0.1C43.8,26.1,43.5,26.1,43.2,26.2z"/>
		<path d="M24.5,32c0.2-0.1,0.5-0.2,0.7-0.3l0,0l0,0C25,31.8,24.8,31.9,24.5,32z"/>
		<path d="M36.2,27.6c0.6-0.2,1.3-0.3,2-0.5C37.5,27.2,36.8,27.4,36.2,27.6z"/>
		<path d="M39.4,26.8c0.3-0.1,0.6-0.1,0.8-0.2C39.9,26.7,39.6,26.7,39.4,26.8z"/>
		<path d="M41.9,26.3c0.4-0.1,0.9-0.1,1.3-0.2C42.7,26.2,42.3,26.3,41.9,26.3z"/>
		<path d="M88.2,47.4c0.2,0.6,0.3,1.2,0.5,1.8C88.5,48.5,88.3,47.9,88.2,47.4z"/>
		<path d="M38.5,27c0.3-0.1,0.5-0.1,0.8-0.2C39.1,26.9,38.8,26.9,38.5,27z"/>
		<path class="st4" d="M18.3,68.9c0.4-5.7,4.9-10.5,4.9-10.5c-2.4,3.4,0,9.8,0,9.8c0.2-6.1,6.5-11.4,8.6-9.8c2.1,1.6-1,7.2-1,7.2
			c6.7-2.4,9.8-7.3,9.8-7.3c-1,2.7,0,5.5,0,5.5c1.2-6.3,12.4-7.1,11.5-8c-0.9-0.9-5.4-0.5-5.4-0.5c3.4-3.8,14.7-4.5,12.1-5.2
			c-0.1,0-0.2-0.1-0.4-0.1c-2.7-0.5-7.7,0.3-7.7,0.3c1.7-1.8,8.1-4,12-2.6c2.8,1,5.8,1.9,7.3,2.3c0.3,0,0.5-0.1,0.8-0.1
			c0.4-0.1,0.9-0.3,1.3-0.4c1.7-0.4,3.4-0.6,4.8-0.6c0.9,0,1.7,0,2.4,0.1c0.7,0.1,1.2,0.1,1.6,0.2c0,0,0,0,0.1,0
			c-0.1,0-0.1-0.1-0.2-0.1c-0.1-0.1-0.3-0.2-0.4-0.2l-0.4-0.2c-0.3-0.1-0.6-0.3-0.9-0.4c-0.6-0.2-1.2-0.4-1.8-0.6
			c-0.6-0.1-1.2-0.3-1.8-0.4c-0.6-0.1-1.1-0.1-1.6-0.1c-1,0-1.9,0-2.4,0.1c-0.6,0.1-0.9,0.2-0.9,0.2s0.1,0,0.2-0.1
			c0.2-0.1,0.4-0.1,0.7-0.2c0.3-0.1,0.6-0.2,1.1-0.2c0.4-0.1,0.9-0.1,1.4-0.2c0.3,0,0.5,0,0.8,0c0.3,0,0.6,0,0.9,0
			c0.6,0,1.2,0.1,1.9,0.3c0.3,0.1,0.6,0.1,1,0.2c0.2,0,0.3,0.1,0.5,0.1c0.2,0.1,0.3,0.1,0.5,0.2c0.2,0.1,0.3,0.1,0.5,0.2
			c0.2,0.1,0.3,0.1,0.5,0.2l0.5,0.2c0.2,0.1,0.3,0.1,0.5,0.2c0.3,0.2,0.6,0.3,0.9,0.5c0.3,0.2,0.6,0.4,0.9,0.6
			c0.1,0.1,0.3,0.2,0.4,0.3c0.1,0.1,0.3,0.2,0.4,0.3c0.3,0.2,0.5,0.4,0.8,0.6c0.1,0.1,0.2,0.2,0.3,0.3c0.7,0.5,1.3,1.1,1.9,1.6
			c0.8,0.7,1.4,1.4,1.9,2c0,0,0-0.1,0-0.1c0-1.2-0.2-2.6-0.4-4c-0.3-1.4-0.6-2.8-1-3.9c-0.3-0.8-0.5-1.4-0.8-1.9
			c-0.1-0.3-0.3-0.5-0.4-0.7c-0.3-0.4-0.8-0.9-1.5-1.4c-0.7-0.5-1.4-0.9-2.3-1.3c-1.8-0.9-3.8-1.6-5.9-2.3c-4-1.3-7.8-2.1-8.3-2.3
			c-4.2,5.8-10.3,1.7-10.3,1.7c1.8,0.8,3.8,0.6,3.8,0.6c-2.4,0-2.4-2.2-2.9-3.2c-0.5-1-2.6-1.1-2.6-1.1c1.2-0.7,1.9-0.3,1.9-0.3
			c-2.3-1.5-5.8-1.1-5.8-1.1c7.9-1.5,9.6,0,12.8,2.8c0.9,0.7,1.8,0.5,2.3,0.1c-2.4-3.7-5.4-6.1-8.7-7.6c-3.4-1.5-7.1-2.1-10.7-2.1
			c-5.6,0-11.2,1.4-15.4,2.8c-4.2,1.4-7,2.9-7.1,2.9l0,0l0,0l0,0c-6.7,3-11.4,7.5-14.4,12.9c-0.8,1.4-1.5,2.9-2.1,4.5
			c0,0.5,0,0.9,0,1.4c0,6,1.3,11.7,3.5,16.8c1.8-3.5,3.5-7.5,3.5-7.5C14,65.2,18.3,68.9,18.3,68.9z M70,39.5
			c0.8-0.2,1.6,0.9,1.6,0.9c-0.6-0.3-2.9,1-2.9,1C68.9,40.4,70,39.5,70,39.5z"/>
		<path class="st4" d="M18.8,35.5c-0.1,0.1-0.2,0.1-0.2,0.2C18.6,35.6,18.7,35.5,18.8,35.5z"/>
		<path class="st4" d="M19.3,35c-0.1,0.1-0.2,0.1-0.3,0.2C19.2,35.2,19.3,35.1,19.3,35z"/>
		<path class="st4" d="M21.8,33.4c-0.1,0-0.2,0.1-0.2,0.1C21.7,33.5,21.7,33.5,21.8,33.4z"/>
		<path class="st4" d="M18.2,35.9C18.1,36,18,36,18,36.1C18,36,18.1,36,18.2,35.9z"/>
		<path class="st4" d="M22.5,33c-0.1,0-0.2,0.1-0.3,0.1C22.3,33.1,22.4,33.1,22.5,33z"/>
		<path class="st4" d="M19.9,34.6c-0.1,0.1-0.2,0.1-0.3,0.2C19.8,34.7,19.9,34.7,19.9,34.6z"/>
		<path class="st4" d="M23.1,32.7c-0.1,0-0.2,0.1-0.3,0.1C23,32.8,23.1,32.7,23.1,32.7z"/>
		<path class="st4" d="M23.8,32.3c-0.1,0-0.2,0.1-0.2,0.1C23.7,32.4,23.7,32.4,23.8,32.3z"/>
		<path class="st4" d="M24.5,32C24.5,32,24.5,32,24.5,32C24.5,32,24.5,32,24.5,32z"/>
		<path class="st4" d="M89.3,55.3c0-0.2,0-0.4,0-0.7C89.3,54.9,89.3,55.1,89.3,55.3L89.3,55.3z"/>
		<path class="st4" d="M89.3,55.5c0,0,0-0.1,0-0.1l0,0C89.3,55.4,89.3,55.4,89.3,55.5z"/>
		<path class="st4" d="M21.2,33.8c-0.1,0.1-0.2,0.1-0.3,0.2C21,33.9,21.1,33.9,21.2,33.8z"/>
		<path class="st4" d="M20.6,34.2c-0.1,0.1-0.2,0.1-0.3,0.2C20.4,34.3,20.5,34.3,20.6,34.2z"/>
		<path class="st4" d="M11.3,43.5c0,0.1-0.1,0.1-0.1,0.2C11.3,43.6,11.3,43.6,11.3,43.5z"/>
		<path class="st4" d="M12.1,42.4c0,0.1-0.1,0.1-0.1,0.2C12,42.5,12,42.5,12.1,42.4z"/>
		<path class="st4" d="M10,45.8c0,0,0,0.1-0.1,0.1C10,45.9,10,45.9,10,45.8z"/>
		<path class="st4" d="M11,44.1c0,0.1-0.1,0.1-0.1,0.2C10.9,44.2,10.9,44.1,11,44.1z"/>
		<path class="st4" d="M10.6,44.7c0,0-0.1,0.1-0.1,0.1C10.6,44.8,10.6,44.7,10.6,44.7z"/>
		<path class="st4" d="M9.7,46.4c0,0,0,0.1-0.1,0.1C9.7,46.5,9.7,46.5,9.7,46.4z"/>
		<path class="st4" d="M10.3,45.3c0,0,0,0.1-0.1,0.1C10.3,45.3,10.3,45.3,10.3,45.3z"/>
		<path class="st4" d="M9.1,47.7C9.1,47.7,9.1,47.7,9.1,47.7C9.1,47.7,9.1,47.6,9.1,47.7C9.1,47.6,9.1,47.7,9.1,47.7z"/>
		<path class="st4" d="M17.6,36.3c-0.1,0.1-0.1,0.1-0.2,0.2C17.5,36.5,17.6,36.4,17.6,36.3z"/>
		<path class="st4" d="M9.4,47c0,0,0,0.1-0.1,0.1C9.4,47.1,9.4,47.1,9.4,47z"/>
		<path class="st4" d="M15.4,38.4c0.1-0.1,0.1-0.1,0.2-0.2C15.5,38.3,15.4,38.4,15.4,38.4z"/>
		<path class="st4" d="M11.7,43c0,0.1-0.1,0.1-0.1,0.2C11.6,43.1,11.7,43,11.7,43z"/>
		<path class="st4" d="M12.5,41.9c0,0.1-0.1,0.1-0.1,0.2C12.4,42,12.4,41.9,12.5,41.9z"/>
		<path class="st4" d="M14.6,39.2c-0.1,0.1-0.1,0.1-0.2,0.2C14.5,39.3,14.6,39.3,14.6,39.2z"/>
		<path class="st4" d="M15.1,38.7c-0.1,0.1-0.1,0.1-0.2,0.2C15,38.8,15,38.8,15.1,38.7z"/>
		<path class="st4" d="M16.1,37.7c-0.1,0.1-0.1,0.1-0.2,0.2C15.9,37.9,16,37.8,16.1,37.7z"/>
		<path class="st4" d="M17.1,36.8C17,36.9,17,36.9,16.9,37C17,36.9,17,36.9,17.1,36.8z"/>
		<path class="st4" d="M16.6,37.3c-0.1,0.1-0.1,0.1-0.2,0.2C16.4,37.4,16.5,37.3,16.6,37.3z"/>
		<path class="st4" d="M12.9,41.3c0,0.1-0.1,0.1-0.1,0.2C12.8,41.4,12.8,41.4,12.9,41.3z"/>
		<path class="st4" d="M14.2,39.7c-0.1,0.1-0.1,0.1-0.2,0.2C14,39.9,14.1,39.8,14.2,39.7z"/>
		<path class="st4" d="M13.3,40.8c0,0.1-0.1,0.1-0.1,0.2C13.2,40.9,13.2,40.8,13.3,40.8z"/>
		<path class="st4" d="M13.7,40.3c0,0.1-0.1,0.1-0.1,0.2C13.6,40.4,13.7,40.3,13.7,40.3z"/>
		<path class="st4" d="M89.3,55.3c-0.2-0.2-0.4-0.4-0.6-0.7c0,0.3,0,0.6,0,0.9c0.4,0.4,0.6,0.7,0.6,0.7c0-0.2,0.1-0.5,0.1-0.7
			C89.3,55.4,89.3,55.4,89.3,55.3z"/>
		<path class="st4" d="M25.5,32.2L25.5,32.2L25.5,32.2l-0.3-0.6l0,0c-0.2,0.1-0.5,0.2-0.7,0.3c0,0-0.1,0-0.1,0
			c-0.2,0.1-0.4,0.2-0.6,0.3c-0.1,0-0.2,0.1-0.2,0.1c-0.1,0.1-0.3,0.2-0.4,0.2c-0.1,0-0.2,0.1-0.3,0.1c-0.1,0.1-0.3,0.1-0.4,0.2
			c-0.1,0-0.2,0.1-0.3,0.1c-0.1,0.1-0.3,0.2-0.4,0.2c-0.1,0-0.2,0.1-0.2,0.1c-0.1,0.1-0.3,0.2-0.4,0.2c-0.1,0.1-0.2,0.1-0.3,0.2
			c-0.1,0.1-0.2,0.2-0.4,0.2c-0.1,0.1-0.2,0.1-0.3,0.2c-0.1,0.1-0.2,0.2-0.3,0.2c-0.1,0.1-0.2,0.1-0.3,0.2c-0.1,0.1-0.2,0.2-0.3,0.2
			c-0.1,0.1-0.2,0.1-0.3,0.2c-0.1,0.1-0.2,0.2-0.3,0.2c-0.1,0.1-0.2,0.1-0.2,0.2c-0.1,0.1-0.2,0.2-0.3,0.3C18.1,36,18,36,18,36.1
			c-0.1,0.1-0.2,0.2-0.3,0.3c-0.1,0.1-0.1,0.1-0.2,0.2c-0.1,0.1-0.2,0.2-0.3,0.3C17,36.9,17,36.9,16.9,37c-0.1,0.1-0.2,0.2-0.3,0.3
			c-0.1,0.1-0.1,0.1-0.2,0.2c-0.1,0.1-0.2,0.2-0.3,0.3c-0.1,0.1-0.1,0.1-0.2,0.2c-0.1,0.1-0.2,0.2-0.3,0.3c-0.1,0.1-0.1,0.1-0.2,0.2
			c-0.1,0.1-0.2,0.2-0.3,0.3c-0.1,0.1-0.1,0.1-0.2,0.2c-0.1,0.1-0.2,0.2-0.3,0.3c-0.1,0.1-0.1,0.1-0.2,0.2c-0.1,0.1-0.2,0.2-0.3,0.3
			c-0.1,0.1-0.1,0.1-0.2,0.2c-0.1,0.1-0.2,0.2-0.3,0.3c0,0.1-0.1,0.1-0.1,0.2c-0.1,0.1-0.2,0.2-0.3,0.3c0,0.1-0.1,0.1-0.1,0.2
			c-0.1,0.1-0.2,0.2-0.3,0.4c0,0.1-0.1,0.1-0.1,0.2c-0.1,0.1-0.2,0.2-0.3,0.4c0,0.1-0.1,0.1-0.1,0.2c-0.1,0.1-0.2,0.3-0.3,0.4
			c0,0.1-0.1,0.1-0.1,0.2c-0.1,0.1-0.2,0.3-0.3,0.4c0,0.1-0.1,0.1-0.1,0.2c-0.1,0.1-0.2,0.3-0.3,0.4c0,0.1-0.1,0.1-0.1,0.2
			c-0.1,0.1-0.2,0.3-0.3,0.4c0,0.1-0.1,0.1-0.1,0.2c-0.1,0.1-0.2,0.3-0.2,0.4c0,0-0.1,0.1-0.1,0.1c-0.1,0.1-0.2,0.3-0.2,0.4
			c0,0,0,0.1-0.1,0.1c-0.1,0.2-0.2,0.3-0.2,0.5c0,0,0,0.1-0.1,0.1c-0.1,0.2-0.2,0.3-0.2,0.5c0,0,0,0.1-0.1,0.1
			c-0.1,0.2-0.2,0.3-0.2,0.5c0,0,0,0.1-0.1,0.1c-0.1,0.2-0.1,0.3-0.2,0.5c0,0,0,0,0,0C9.1,48.3,9,49,9,49.6c0.6-1.5,1.3-3,2.1-4.5
			C14.1,39.8,18.8,35.2,25.5,32.2z"/>
		<path class="st4" d="M85,51.3c0.1,0.1,0.1,0.1,0.2,0.2c0.2,0.2,0.4,0.4,0.6,0.7c0.4,0.4,0.8,0.9,1.1,1.3c0.2,0.2,0.3,0.4,0.5,0.6
			c0.1,0.2,0.3,0.4,0.4,0.5c0.1,0.1,0.1,0.2,0.2,0.2c0.3,0.3,0.5,0.6,0.7,0.8c0-0.3,0-0.6,0-0.9c-0.5-0.6-1.2-1.3-1.9-2
			c-0.6-0.6-1.3-1.1-1.9-1.6c0,0,0,0,0.1,0.1C84.9,51.1,85,51.2,85,51.3z"/>
		<path class="st4" d="M82.1,49.9c-0.1-0.1-0.3-0.2-0.4-0.3c-0.2-0.1-0.4-0.3-0.7-0.4c0,0,0,0-0.1,0c-0.4,0-0.9-0.1-1.6-0.2
			C78.6,49,77.8,49,76.9,49c-1.4,0-3.1,0.1-4.8,0.6c-0.4,0.1-0.9,0.2-1.3,0.4c4.7-0.6,8.8-0.3,10.1-0.2c0.6,0.1,1.2,0.3,1.8,0.6
			c-0.1,0-0.1-0.1-0.2-0.1C82.4,50.1,82.2,50,82.1,49.9z"/>
		<path class="st4" d="M60.7,28.9c-0.3-0.2-0.5-0.3-0.8-0.4c-0.1-0.1-0.3-0.1-0.4-0.2c-0.3-0.1-0.6-0.3-0.8-0.4
			c-0.1-0.1-0.3-0.1-0.4-0.2c-0.3-0.1-0.6-0.2-0.9-0.3c-0.1-0.1-0.3-0.1-0.4-0.1c-0.4-0.1-0.9-0.3-1.3-0.4c-0.3-0.1-0.6-0.2-0.9-0.2
			c-0.3-0.1-0.6-0.1-0.9-0.2c-0.3-0.1-0.6-0.1-0.9-0.2c-0.6-0.1-1.2-0.2-1.8-0.2c-0.3,0-0.6-0.1-0.9-0.1c-0.1,0-0.3,0-0.4,0
			c-0.3,0-0.6,0-0.9,0c-0.7,0-1.5,0-2.2,0c-0.3,0-0.6,0-0.9,0c-0.1,0-0.3,0-0.4,0c-0.3,0-0.6,0-0.9,0.1c-0.1,0-0.3,0-0.4,0
			c-0.3,0-0.6,0.1-0.9,0.1c-0.4,0.1-0.9,0.1-1.3,0.2c-0.6,0.1-1.1,0.2-1.7,0.3c-0.3,0.1-0.6,0.1-0.8,0.2c-0.3,0.1-0.5,0.1-0.8,0.2
			c-0.1,0-0.3,0.1-0.4,0.1c-0.7,0.2-1.3,0.3-2,0.5c-2.7,0.7-5,1.6-6.9,2.3c-0.8,0.3-1.5,0.6-2.1,0.9c-1.3,0.6-2,0.9-2,0.9l0.3,0.6
			l0,0c0.2-0.1,3-1.5,7.1-2.9c4.2-1.4,9.7-2.8,15.4-2.8c3.7,0,7.4,0.6,10.7,2.1c3.3,1.5,6.3,3.9,8.7,7.6c0.2-0.1,0.4-0.3,0.5-0.4
			C65.9,32.7,63.4,30.4,60.7,28.9z"/>
		<path class="st4" d="M76.4,39c2,0.7,4.1,1.4,5.9,2.3c0.9,0.4,1.7,0.9,2.3,1.3c0.7,0.5,1.2,0.9,1.5,1.4c0.1,0.2,0.3,0.4,0.4,0.7
			c0.3,0.5,0.5,1.2,0.8,1.9c0.4,1.2,0.7,2.5,1,3.9c0.3,1.4,0.4,2.8,0.4,4c0,0,0,0.1,0,0.1c0.2,0.3,0.4,0.5,0.6,0.7
			c0-0.2,0-0.4,0-0.7c0-0.1,0-0.3,0-0.4c0-0.3,0-0.6,0-0.9c0-0.3,0-0.6-0.1-0.9c0-0.3-0.1-0.6-0.1-0.9c0-0.2,0-0.3-0.1-0.5
			c-0.1-0.3-0.1-0.6-0.2-0.9c-0.1-0.3-0.1-0.6-0.2-0.9c-0.1-0.6-0.3-1.2-0.5-1.8c-0.5-1.7-1.1-3.1-1.6-3.8
			c-2.9-3.9-15.9-6.9-18.1-7.4c-0.1,0.2-0.3,0.4-0.4,0.6C68.6,36.8,72.4,37.6,76.4,39z"/>
		<path d="M68.5,36.1c0-0.1,0.1-0.1,0.1-0.2l-0.1-0.1l-0.3,0.2C68.2,36.1,68.3,36.1,68.5,36.1z"/>
		<path d="M68.3,35.7L68.3,35.7c-0.1-0.1-0.1,0-0.3,0.1c0.1,0.1,0.1,0.2,0.2,0.3L68.3,35.7z"/>
		<polygon points="68.2,36.1 68.5,35.9 68.3,35.7 		"/>
		<path d="M68.1,36.7l-0.3-0.1l-0.1-0.2c-0.1-0.1-0.1-0.2-0.2-0.2c-0.6,0.3-1.5,0.6-2.3-0.1c-3.2-2.7-4.9-4.3-12.8-2.8
			c0,0,3.5-0.4,5.8,1.1c0,0-0.7-0.4-1.9,0.3c0,0,2.1,0.1,2.6,1.1c0.5,1,0.5,3.2,2.9,3.2c0,0-2,0.3-3.8-0.6
			C57.8,38.4,63.9,42.5,68.1,36.7C68.1,36.7,68.1,36.7,68.1,36.7C68.1,36.7,68.1,36.7,68.1,36.7z M60.5,37.6c-1.3-1.9,1.4-3,1.4-3
			c0.2,0.1,0.4,0.2,0.7,0.3c0.1-0.1,0.1-0.1,0.1-0.1l1.5,1.1c0,0.1-0.1,0.1-0.1,0.2c0.3,0.3,0.6,0.6,0.6,0.6
			C64.7,37.7,61.9,39.7,60.5,37.6z"/>
		<path d="M68,35.8c-0.1,0.1-0.3,0.2-0.5,0.4c0.1,0.1,0.1,0.2,0.2,0.2l0.1,0.2l0.3,0.1c0,0,0,0,0,0c0,0,0,0,0,0
			c0.1-0.2,0.3-0.4,0.4-0.6c-0.2,0-0.3-0.1-0.3-0.1C68.1,36,68.1,35.9,68,35.8z"/>
		<path class="st4" d="M64.1,36.2c-0.6,1.3-2.1,2-2.8,0.9c-0.6-0.9,0.8-1.9,1.3-2.2c-0.2-0.2-0.5-0.3-0.7-0.3c0,0-2.7,1.1-1.4,3
			c1.4,2.1,4.2,0,4.1-0.9C64.6,36.7,64.4,36.5,64.1,36.2z"/>
		<path d="M64.2,36l-1.5-1.1c0,0-0.1,0-0.1,0.1c0.5,0.3,1.1,0.9,1.5,1.3C64.1,36.1,64.1,36,64.2,36z"/>
		<path d="M61.3,37.1c0.7,1,2.2,0.4,2.8-0.9c-0.4-0.4-1-0.9-1.5-1.3C62.1,35.2,60.6,36.2,61.3,37.1z M61.8,36.5
			c0.1-0.1,0.1-0.3,0.2-0.4c0.2-0.2,0.4-0.5,0.6-0.6c0.1-0.1,0.2-0.1,0.2-0.2c0.1,0,0.1-0.1,0.1-0.1l0.2,0.3c0,0,0,0-0.1,0
			c-0.1,0-0.1,0.1-0.2,0.1c-0.2,0.1-0.4,0.3-0.6,0.5C62,36.3,61.9,36.4,61.8,36.5c0,0.2,0,0.3,0,0.4c0,0,0,0.1,0,0.1c0,0,0,0,0,0.1
			c0,0,0,0.1,0.1,0.1c0,0.1,0.1,0.1,0.1,0.1s0,0-0.1-0.1c0,0-0.1-0.1-0.1-0.1c0,0,0,0,0-0.1c0,0,0-0.1,0-0.1
			C61.7,36.8,61.7,36.6,61.8,36.5z"/>
		<path class="st4" d="M61.7,37C61.8,37,61.8,37,61.7,37c0.1,0.1,0.1,0.1,0.1,0.2c0,0,0.1,0.1,0.1,0.1s0,0-0.1-0.1
			C61.8,37.1,61.8,37.1,61.7,37C61.8,37,61.8,37,61.7,37C61.8,37,61.8,36.9,61.7,37c0-0.2,0-0.3,0.1-0.4c0.1-0.1,0.2-0.2,0.3-0.3
			c0.2-0.2,0.5-0.4,0.6-0.5c0.1-0.1,0.2-0.1,0.2-0.1c0.1,0,0.1,0,0.1,0l-0.2-0.3c0,0,0,0-0.1,0.1c-0.1,0-0.1,0.1-0.2,0.2
			c-0.2,0.2-0.4,0.4-0.6,0.6c-0.1,0.1-0.2,0.3-0.2,0.4C61.7,36.6,61.7,36.8,61.7,37C61.7,36.9,61.7,37,61.7,37z"/>
		<path d="M88.6,55.9c0.1,0.1,0.1,0.2,0.2,0.2l0,0c0-0.1-0.1-0.2-0.2-0.3C88.6,55.8,88.6,55.9,88.6,55.9z"/>
		<path d="M88.3,55.4c-0.1-0.1-0.2-0.3-0.3-0.4c0,0,0-0.1-0.1-0.1c-1-1.1-2.6-2.7-4.3-3.8c0.1,0.1,0.2,0.1,0.3,0.2
			c0.5,0.4,0.9,0.8,1.4,1.2c0.4,0.4,0.8,0.8,1.2,1.2c0.2,0.2,0.3,0.4,0.5,0.5c0.2,0.2,0.3,0.3,0.4,0.5c0.1,0.2,0.3,0.3,0.4,0.4
			c0.1,0.1,0.2,0.3,0.3,0.4c0.1,0.2,0.3,0.3,0.4,0.4c0,0,0-0.1,0-0.1C88.5,55.7,88.4,55.5,88.3,55.4z"/>
		<path d="M88.8,56.2C88.8,56.2,88.8,56.2,88.8,56.2L88.8,56.2C88.8,56.2,88.8,56.2,88.8,56.2z"/>
		<path d="M88,54.9c0-0.1-0.1-0.1-0.1-0.2c-1.3-1.4-3.3-3.5-5.3-4.5c0.1,0.1,0.2,0.1,0.3,0.2c0.1,0.1,0.3,0.2,0.4,0.3
			c0.2,0.1,0.3,0.2,0.5,0.4C85.4,52.2,87,53.8,88,54.9z"/>
		<path d="M84,50.4c0.3,0.2,0.6,0.4,0.8,0.6c-0.1-0.1-0.2-0.2-0.3-0.3c-0.2-0.2-0.5-0.4-0.8-0.6c-0.1-0.1-0.3-0.2-0.4-0.3
			c-0.1-0.1-0.3-0.2-0.4-0.3c-0.3-0.2-0.6-0.4-0.9-0.6c-0.3-0.2-0.6-0.4-0.9-0.5c-0.2-0.1-0.3-0.2-0.5-0.2L80.2,48
			c-0.2-0.1-0.3-0.1-0.5-0.2c-0.2-0.1-0.3-0.1-0.5-0.2c-0.2-0.1-0.3-0.1-0.5-0.2c-0.2-0.1-0.3-0.1-0.5-0.1c-0.3-0.1-0.6-0.2-1-0.2
			c-0.6-0.1-1.3-0.2-1.9-0.3c-0.3,0-0.6,0-0.9,0c-0.3,0-0.6,0-0.8,0c-0.5,0-1,0.1-1.4,0.2c-0.4,0.1-0.8,0.2-1.1,0.2
			c-0.3,0.1-0.5,0.2-0.7,0.2c-0.1,0.1-0.2,0.1-0.2,0.1s0.3-0.1,0.9-0.2c0.6-0.1,1.4-0.2,2.4-0.1c0.5,0,1,0.1,1.6,0.1
			c0.6,0.1,1.2,0.2,1.8,0.4c0.6,0.2,1.2,0.4,1.8,0.6c0.3,0.1,0.6,0.3,0.9,0.4l0.4,0.2c0.1,0.1,0.3,0.1,0.4,0.2
			c0.1,0,0.1,0.1,0.2,0.1c0.5,0.1,1,0.2,1.5,0.4C83,49.8,83.5,50.1,84,50.4z"/>
		<path d="M87.9,54.7c-0.1-0.1-0.1-0.2-0.2-0.2c-0.1-0.2-0.2-0.4-0.4-0.5c-0.1-0.2-0.3-0.4-0.5-0.6c-0.3-0.4-0.7-0.8-1.1-1.3
			c-0.2-0.2-0.4-0.4-0.6-0.7c-0.1-0.1-0.1-0.1-0.2-0.2c-0.1-0.1-0.1-0.1-0.2-0.2c0,0,0,0-0.1-0.1c-0.3-0.2-0.6-0.4-0.8-0.6
			c-0.5-0.3-1-0.6-1.5-0.8c-0.5-0.2-1-0.4-1.5-0.4c0.2,0.1,0.5,0.2,0.7,0.4c0.1,0.1,0.3,0.2,0.4,0.3c0.1,0.1,0.3,0.2,0.4,0.3
			c0.1,0,0.1,0.1,0.2,0.1C84.6,51.3,86.7,53.3,87.9,54.7z"/>
		<path d="M71.7,40.4c0,0-0.9-1.1-1.6-0.9c0,0-1.2,0.9-1.2,1.9C68.8,41.4,71.1,40.1,71.7,40.4z"/>
	</g>
</g>
</svg>
